<svg width="298" height="238" viewBox="0 0 298 238" fill="none" xmlns="http://www.w3.org/2000/svg">
<g filter="url(#filter0_d_0_1)">
<path fill-rule="evenodd" clip-rule="evenodd" d="M32.7217 161.328C32.4762 143.657 48.2792 129.109 68.0187 128.835L228.87 126.601C248.61 126.327 264.811 140.43 265.056 158.102C265.302 175.773 249.499 190.321 229.759 190.595L68.9075 192.829C49.168 193.103 32.9671 179 32.7217 161.328Z" stroke="black" stroke-width="12" stroke-linecap="round" shape-rendering="crispEdges"/>
</g>
<g filter="url(#filter1_d_0_1)">
<path fill-rule="evenodd" clip-rule="evenodd" d="M32.6213 78.2281C32.4313 60.556 46.6033 46.0759 64.2754 45.8858L157.275 44.8858C174.948 44.6958 189.428 58.8678 189.618 76.5399C189.808 94.212 175.636 108.692 157.964 108.882L64.9636 109.882C47.2915 110.072 32.8114 95.9002 32.6213 78.2281Z" stroke="black" stroke-width="10" stroke-linecap="round" shape-rendering="crispEdges"/>
</g>
<g filter="url(#filter2_d_0_1)">
<path fill-rule="evenodd" clip-rule="evenodd" d="M57.2182 159.992C57.1588 154.469 62.2341 149.937 68.5542 149.869L227.631 148.159C233.952 148.091 239.123 152.512 239.183 158.035C239.242 163.557 234.167 168.089 227.846 168.157L68.7693 169.868C62.4492 169.936 57.2776 165.514 57.2182 159.992Z" stroke="black" stroke-width="10" stroke-linecap="round" shape-rendering="crispEdges"/>
</g>
<g filter="url(#filter3_d_0_1)">
<path fill-rule="evenodd" clip-rule="evenodd" d="M54.6201 77.4915C54.5607 71.969 58.9894 67.4439 64.512 67.3846L157.512 66.3846C163.034 66.3252 167.56 70.7539 167.619 76.2765C167.678 81.799 163.25 86.324 157.727 86.3834L64.727 87.3834C59.2045 87.4428 54.6794 83.014 54.6201 77.4915Z" stroke="#ED2D2D" stroke-width="10" stroke-linecap="round" shape-rendering="crispEdges"/>
</g>
<g style="mix-blend-mode:soft-light">
<rect x="0.665817" y="0.264664" width="296.446" height="237.338" rx="60" fill="#FFFEFE"/>
</g>
<defs>
<filter id="filter0_d_0_1" x="22.7188" y="120.597" width="252.34" height="86.2356" filterUnits="userSpaceOnUse" color-interpolation-filters="sRGB">
<feFlood flood-opacity="0" result="BackgroundImageFix"/>
<feColorMatrix in="SourceAlpha" type="matrix" values="0 0 0 0 0 0 0 0 0 0 0 0 0 0 0 0 0 0 127 0" result="hardAlpha"/>
<feOffset dy="4"/>
<feGaussianBlur stdDeviation="2"/>
<feComposite in2="hardAlpha" operator="out"/>
<feColorMatrix type="matrix" values="0 0 0 0 0 0 0 0 0 0 0 0 0 0 0 0 0 0 0.25 0"/>
<feBlend mode="normal" in2="BackgroundImageFix" result="effect1_dropShadow_0_1"/>
<feBlend mode="normal" in="SourceGraphic" in2="effect1_dropShadow_0_1" result="shape"/>
</filter>
<filter id="filter1_d_0_1" x="23.6194" y="39.884" width="175" height="83.0001" filterUnits="userSpaceOnUse" color-interpolation-filters="sRGB">
<feFlood flood-opacity="0" result="BackgroundImageFix"/>
<feColorMatrix in="SourceAlpha" type="matrix" values="0 0 0 0 0 0 0 0 0 0 0 0 0 0 0 0 0 0 127 0" result="hardAlpha"/>
<feOffset dy="4"/>
<feGaussianBlur stdDeviation="2"/>
<feComposite in2="hardAlpha" operator="out"/>
<feColorMatrix type="matrix" values="0 0 0 0 0 0 0 0 0 0 0 0 0 0 0 0 0 0 0.25 0"/>
<feBlend mode="normal" in2="BackgroundImageFix" result="effect1_dropShadow_0_1"/>
<feBlend mode="normal" in="SourceGraphic" in2="effect1_dropShadow_0_1" result="shape"/>
</filter>
<filter id="filter2_d_0_1" x="48.2176" y="143.158" width="199.965" height="39.7108" filterUnits="userSpaceOnUse" color-interpolation-filters="sRGB">
<feFlood flood-opacity="0" result="BackgroundImageFix"/>
<feColorMatrix in="SourceAlpha" type="matrix" values="0 0 0 0 0 0 0 0 0 0 0 0 0 0 0 0 0 0 127 0" result="hardAlpha"/>
<feOffset dy="4"/>
<feGaussianBlur stdDeviation="2"/>
<feComposite in2="hardAlpha" operator="out"/>
<feColorMatrix type="matrix" values="0 0 0 0 0 0 0 0 0 0 0 0 0 0 0 0 0 0 0.25 0"/>
<feBlend mode="normal" in2="BackgroundImageFix" result="effect1_dropShadow_0_1"/>
<feBlend mode="normal" in="SourceGraphic" in2="effect1_dropShadow_0_1" result="shape"/>
</filter>
<filter id="filter3_d_0_1" x="45.6195" y="61.384" width="131" height="39" filterUnits="userSpaceOnUse" color-interpolation-filters="sRGB">
<feFlood flood-opacity="0" result="BackgroundImageFix"/>
<feColorMatrix in="SourceAlpha" type="matrix" values="0 0 0 0 0 0 0 0 0 0 0 0 0 0 0 0 0 0 127 0" result="hardAlpha"/>
<feOffset dy="4"/>
<feGaussianBlur stdDeviation="2"/>
<feComposite in2="hardAlpha" operator="out"/>
<feColorMatrix type="matrix" values="0 0 0 0 0 0 0 0 0 0 0 0 0 0 0 0 0 0 0.25 0"/>
<feBlend mode="normal" in2="BackgroundImageFix" result="effect1_dropShadow_0_1"/>
<feBlend mode="normal" in="SourceGraphic" in2="effect1_dropShadow_0_1" result="shape"/>
</filter>
</defs>
</svg>
